<?xml version="1.0" encoding="iso-8859-1"?>
<!-- Generator: Adobe Illustrator 19.0.0, SVG Export Plug-In . SVG Version: 6.00 Build 0)  -->
<svg xmlns="http://www.w3.org/2000/svg" xmlns:xlink="http://www.w3.org/1999/xlink" version="1.1" id="Capa_1" x="0px" y="0px" viewBox="0 0 512 512" style="enable-background:new 0 0 512 512;" xml:space="preserve" width="512px" height="512px">
<g>
	<g>
		<g>
			<path d="M494.031,132.723l-42.66-85.329c-0.002-0.004-0.004-0.009-0.007-0.013l0,0c0,0,0,0,0,0     c-0.155-0.31-0.337-0.608-0.531-0.9c-0.063-0.095-0.128-0.186-0.194-0.278c-0.146-0.201-0.302-0.396-0.467-0.586     c-0.072-0.083-0.14-0.17-0.215-0.251c-0.216-0.23-0.448-0.449-0.693-0.657c-0.115-0.098-0.236-0.185-0.356-0.277     c-0.096-0.073-0.185-0.152-0.285-0.221c-0.064-0.045-0.132-0.081-0.197-0.123c-0.127-0.084-0.255-0.165-0.386-0.242     c-0.212-0.125-0.429-0.236-0.647-0.341c-0.085-0.04-0.165-0.087-0.251-0.124c-0.315-0.137-0.635-0.25-0.959-0.347     c-0.086-0.026-0.173-0.046-0.26-0.069c-0.279-0.074-0.559-0.134-0.841-0.179c-0.076-0.012-0.15-0.027-0.226-0.037     c-0.357-0.047-0.715-0.073-1.072-0.075c-0.016,0-0.031-0.003-0.047-0.003H179.303V25.6c0-2.859-1.434-5.53-3.814-7.108     L149.786,1.425C148.386,0.495,146.748,0,145.067,0h-34.133c-1.681,0-3.337,0.503-4.736,1.434L80.598,18.5     c-2.372,1.587-3.797,4.25-3.797,7.1v17.067H51.199c-4.71,0-8.533,3.823-8.533,8.533v85.333c0,4.71,3.823,8.533,8.533,8.533H76.8     v8.679c0,0.002,0,0.004,0,0.006v341.182H25.6c-4.71,0-8.533,3.823-8.533,8.533S20.89,512,25.6,512h59.733h85.436H230.4     c4.71,0,8.533-3.823,8.533-8.533s-3.823-8.533-8.533-8.533h-51.098v-204.71c0-0.03,0.005-0.06,0.005-0.09s-0.005-0.06-0.005-0.09     V145.071h196.164v51.196c0,4.71,3.823,8.533,8.533,8.533c9.412,0,17.067,7.654,17.067,17.067c0,9.412-7.654,17.067-17.067,17.067     s-17.067-7.654-17.067-17.067c0-4.71-3.823-8.533-8.533-8.533c-4.71,0-8.533,3.823-8.533,8.533     C349.867,240.691,365.176,256,384,256s34.133-15.309,34.133-34.133c0-15.879-10.893-29.256-25.6-33.054v-43.742h93.868     c2.953,0,5.7-1.536,7.253-4.045C495.217,138.509,495.353,135.369,494.031,132.723z M162.236,137.287l-19.363-13.554     l19.363-13.554V137.287z M156.496,154.092l-28.392,22.714l-28.489-22.791L128,134.145L156.496,154.092z M93.867,340.728v-32.924     l20.578,16.462L93.867,340.728z M128.104,335.193l29.009,23.207l-29.009,23.207L99.094,358.4L128.104,335.193z M99.095,290.133     l29.009-23.206l29.009,23.206l-29.009,23.206L99.095,290.133z M93.867,272.462v-32.924L114.445,256L93.867,272.462z      M99.094,221.867l29.01-23.207l29.009,23.207l-29.009,23.207L99.094,221.867z M93.867,204.195v-32.924l20.578,16.462     L93.867,204.195z M93.867,137.215v-26.963l19.259,13.482L93.867,137.215z M93.867,376.072l20.578,16.462l-20.578,16.462V376.072z      M128.104,403.461l29.486,23.589l-29.486,26.539l-29.487-26.539L128.104,403.461z M141.763,392.534l20.473-16.378v32.756     L141.763,392.534z M141.763,324.266l20.473-16.378v32.756L141.763,324.266z M141.763,256l20.473-16.378v32.756L141.763,256z      M141.763,187.733l20.473-16.378v32.756L141.763,187.733z M162.236,77.553L142.873,64l19.363-13.554V77.553z M155.793,93.866     L128,113.322l-27.793-19.455L128,74.411L155.793,93.866z M93.867,77.481V50.518L113.126,64L93.867,77.481z M115.354,465.065     l-21.487,19.339v-38.677L115.354,465.065z M128.104,476.541l20.436,18.393h-40.873L128.104,476.541z M140.854,465.065     l21.382-19.244v38.488L140.854,465.065z M179.304,64.864l23.206,29.008l-23.206,29.008V64.864z M333.591,59.738h32.759     l-16.38,20.473L333.591,59.738z M339.042,93.868l-23.209,29.008l-23.201-29.002l23.209-29.008L339.042,93.868z M281.704,80.213     l-16.38-20.475h32.759L281.704,80.213z M270.775,93.874l-23.201,29.002l-23.209-29.008l23.201-29.002L270.775,93.874z      M213.439,80.211l-16.38-20.473h32.759L213.439,80.211z M213.437,107.53l16.38,20.475h-32.759L213.437,107.53z M281.704,107.533     l16.379,20.471h-32.758L281.704,107.533z M349.971,107.53l16.379,20.475h-32.759L349.971,107.53z M383.593,122.241l-22.696-28.37     l22.699-28.374l19.859,28.369L383.593,122.241z M413.866,108.741l13.484,19.263h-26.969L413.866,108.741z M400.387,59.738h26.958     l-13.479,19.256L400.387,59.738z M113.519,17.067h28.971l19.336,12.843L128,53.588L94.211,29.936L113.519,17.067z M76.799,128     H59.732V59.733h17.067V128z M448.174,128.004l-23.896-34.137l18.228-26.04l30.089,60.177H448.174z" fill="#FFFFFF"/>
			<path d="M477.865,273.067H290.132c-4.71,0-8.533,3.823-8.533,8.533v221.867c0,4.71,3.823,8.533,8.533,8.533h187.733     c4.71,0,8.533-3.823,8.533-8.533V281.6C486.399,276.89,482.576,273.067,477.865,273.067z M401.067,494.933h-34.133V460.8h34.133     V494.933z M469.332,494.933h-51.198v-42.667c0-4.71-3.823-8.533-8.533-8.533h-51.2c-4.71,0-8.533,3.823-8.533,8.533v42.667     h-51.202v-204.8h170.667V494.933z" fill="#FFFFFF"/>
			<path d="M418.134,358.4H435.2c9.412,0,17.067-7.654,17.067-17.067v-17.067c0-9.412-7.654-17.067-17.067-17.067h-17.067     c-9.412,0-17.067,7.654-17.067,17.067v17.067C401.067,350.746,408.721,358.4,418.134,358.4z M418.134,324.267H435.2l0.009,17.067     h-17.075V324.267z" fill="#FFFFFF"/>
			<path d="M332.8,358.4h17.067c9.412,0,17.067-7.654,17.067-17.067v-17.067c0-9.412-7.654-17.067-17.067-17.067H332.8     c-9.412,0-17.067,7.654-17.067,17.067v17.067C315.734,350.746,323.388,358.4,332.8,358.4z M332.8,324.267h17.067l0.009,17.067     H332.8V324.267z" fill="#FFFFFF"/>
			<path d="M418.134,426.667H435.2c9.412,0,17.067-7.654,17.067-17.067v-17.067c0-9.412-7.654-17.067-17.067-17.067h-17.067     c-9.412,0-17.067,7.654-17.067,17.067V409.6C401.067,419.012,408.721,426.667,418.134,426.667z M418.134,392.533H435.2     l0.009,17.067h-17.075V392.533z" fill="#FFFFFF"/>
			<path d="M332.8,426.667h17.067c9.412,0,17.067-7.654,17.067-17.067v-17.067c0-9.412-7.654-17.067-17.067-17.067H332.8     c-9.412,0-17.067,7.654-17.067,17.067V409.6C315.734,419.012,323.388,426.667,332.8,426.667z M332.8,392.533h17.067l0.009,17.067     H332.8V392.533z" fill="#FFFFFF"/>
		</g>
	</g>
</g>
<g>
</g>
<g>
</g>
<g>
</g>
<g>
</g>
<g>
</g>
<g>
</g>
<g>
</g>
<g>
</g>
<g>
</g>
<g>
</g>
<g>
</g>
<g>
</g>
<g>
</g>
<g>
</g>
<g>
</g>
</svg>
