<?xml version="1.0" encoding="iso-8859-1"?>
<!-- Generator: Adobe Illustrator 19.0.0, SVG Export Plug-In . SVG Version: 6.00 Build 0)  -->
<svg xmlns="http://www.w3.org/2000/svg" xmlns:xlink="http://www.w3.org/1999/xlink" version="1.1" id="Layer_1" x="0px" y="0px" viewBox="0 0 512 512" style="enable-background:new 0 0 512 512;" xml:space="preserve" width="512px" height="512px">
<g>
	<g>
		<path d="M186.709,136.686c-16.121-16.121-42.351-16.121-58.471,0c-5.421,5.42-5.421,14.208,0,19.629    c2.711,2.711,6.262,4.066,9.815,4.066c3.552,0,7.105-1.355,9.815-4.066c5.296-5.296,13.915-5.296,19.212,0    c5.42,5.42,14.209,5.42,19.629,0C192.13,150.896,192.13,142.107,186.709,136.686z" fill="#FFFFFF"/>
	</g>
</g>
<g>
	<g>
		<path d="M208.296,102.285c-28.024-28.024-73.621-28.022-101.643,0c-5.421,5.42-5.421,14.209,0,19.629    c5.42,5.42,14.209,5.42,19.629,0c17.199-17.198,45.184-17.198,62.385,0c2.71,2.71,6.262,4.066,9.815,4.066    c3.553,0,7.103-1.356,9.814-4.066C213.716,116.493,213.716,107.704,208.296,102.285z" fill="#FFFFFF"/>
	</g>
</g>
<g>
	<g>
		<path d="M232.386,70.039c-20.01-20.011-46.614-31.031-74.912-31.031c-28.298,0-54.903,11.02-74.913,31.031    c-5.421,5.42-5.421,14.209,0,19.629c5.42,5.421,14.209,5.421,19.629,0c14.767-14.767,34.4-22.9,55.283-22.9    s40.516,8.133,55.283,22.9c2.711,2.711,6.262,4.066,9.815,4.066c3.552,0,7.105-1.355,9.815-4.066    C237.807,84.248,237.807,75.459,232.386,70.039z" fill="#FFFFFF"/>
	</g>
</g>
<g>
	<g>
		<path d="M499.799,308.714v-53.858c0-34.677-28.212-62.889-62.888-62.889h-55.906V187.8c0-3.689-1.468-7.226-4.08-9.829    c-2.603-2.595-6.126-4.051-9.8-4.051c-0.014,0-0.028,0-0.042,0l-44.608,0.134v-30.268h21.764c7.666,0,13.88-6.214,13.88-13.88    c0-7.666-6.214-13.88-13.88-13.88h-71.288c-7.666,0-13.88,6.214-13.88,13.88c0,7.666,6.214,13.88,13.88,13.88h21.764v30.352    l-44.692,0.134c-7.649,0.023-13.839,6.231-13.839,13.88v3.815h-48.163c-0.981-6.705-6.739-11.86-13.717-11.86h-33.663    c-6.978,0-12.736,5.154-13.717,11.86H13.88c-7.666,0-13.88,6.214-13.88,13.88v49.008c0,7.666,6.214,13.88,13.88,13.88h222.305    v4.701c0,3.689,1.468,7.226,4.08,9.829c2.603,2.595,6.126,4.051,9.8,4.051c0.014,0,0.028,0,0.042,0l117.06-0.352    c7.65-0.023,13.839-6.231,13.839-13.88v-4.348h42.025v39.979c-6.872,0.83-12.201,6.672-12.201,13.769    c0,7.666,6.214,13.88,13.88,13.88h73.41c7.666,0,13.88-6.214,13.88-13.88C512,315.386,506.671,309.543,499.799,308.714z" fill="#FFFFFF"/>
	</g>
</g>
<g>
	<g>
		<path d="M497.175,423.202l-16.143-47.895c-2.84-8.427-10.724-14.09-19.617-14.09s-16.777,5.662-19.617,14.089l-16.143,47.896    c-3.871,11.486-1.961,24.222,5.11,34.067s18.529,15.723,30.65,15.723c12.121,0,23.579-5.877,30.65-15.723    C499.136,447.426,501.046,434.689,497.175,423.202z" fill="#FFFFFF"/>
	</g>
</g>
<g>
</g>
<g>
</g>
<g>
</g>
<g>
</g>
<g>
</g>
<g>
</g>
<g>
</g>
<g>
</g>
<g>
</g>
<g>
</g>
<g>
</g>
<g>
</g>
<g>
</g>
<g>
</g>
<g>
</g>
</svg>
